<svg xmlns="http://www.w3.org/2000/svg" class="Qe" viewBox="0 0 1596 1596.5">
    <path d="M1577.2 1480.9l-443.9-448.1c219.2-274.4 174.4-674.6-100-893.8C920.6 49 780.6 0 636.3 0 284.9 0 0 284.9 0 636.3c0 351.2 284.7 635.9 636.3 635.9 152.1 0 291.4-53.2 401.1-142.1l440.9 445.2c25.8 27.3 68.9 28.5 96.3 2.7.1-.1.2-.1.2-.2 27.3-26.2 28.4-69.5 2.4-96.9zM989.5 989.2c-93.5 94-220.7 146.6-353.2 146.3-132.6.4-259.7-52.3-353.2-146.3-93.9-93.4-146.6-220.5-146.3-352.9-.5-132.5 52.2-259.6 146.2-352.9 93.5-94 220.7-146.6 353.2-146.3 133.4 0 259 51.9 353.2 146.3 93.9 93.4 146.6 220.4 146.4 352.8.5 132.6-52.2 259.7-146.3 353z"/>
</svg>
